<mxfile host="app.diagrams.net" modified="2023-02-17T16:50:49.164Z" agent="5.0 (Macintosh; Intel Mac OS X 10_15_7) AppleWebKit/605.1.15 (KHTML, like Gecko) Version/16.1 Safari/605.1.15" etag="dQDc5sLyE1yj5tqNQANu" version="20.8.20" type="github">
  <diagram name="Page-1" id="iV1RnTl6HTwkThaEjvGe">
    <mxGraphModel dx="2009" dy="843" grid="1" gridSize="10" guides="1" tooltips="1" connect="1" arrows="1" fold="1" page="1" pageScale="1" pageWidth="827" pageHeight="1169" math="0" shadow="0">
      <root>
        <mxCell id="0" />
        <mxCell id="1" parent="0" />
        <mxCell id="uuslm9PACDWed2pLeZsH-23" value="" style="rounded=0;whiteSpace=wrap;html=1;" vertex="1" parent="1">
          <mxGeometry x="110" y="30" width="610" height="240" as="geometry" />
        </mxCell>
        <mxCell id="uuslm9PACDWed2pLeZsH-4" value="" style="group;rotation=90;fontSize=15;" vertex="1" connectable="0" parent="1">
          <mxGeometry x="229" y="118" width="155" height="80" as="geometry" />
        </mxCell>
        <mxCell id="uuslm9PACDWed2pLeZsH-1" value="" style="points=[[0,0.5,0],[0.19,0.02,0],[0.59,0,0],[0.985,0.02,0],[1,0.5,0],[0.985,0.98,0],[0.59,1,0],[0.19,0.98,0]];verticalLabelPosition=bottom;sketch=0;html=1;verticalAlign=top;aspect=fixed;align=center;pointerEvents=1;shape=mxgraph.cisco19.camera;fillColor=#005073;strokeColor=none;direction=west;" vertex="1" parent="uuslm9PACDWed2pLeZsH-4">
          <mxGeometry x="25" width="90" height="50" as="geometry" />
        </mxCell>
        <mxCell id="uuslm9PACDWed2pLeZsH-2" value="&lt;font style=&quot;font-size: 15px;&quot;&gt;caméra de profondeur&lt;/font&gt;" style="text;html=1;align=center;verticalAlign=middle;resizable=0;points=[];autosize=1;strokeColor=none;fillColor=none;" vertex="1" parent="uuslm9PACDWed2pLeZsH-4">
          <mxGeometry x="-15" y="50" width="170" height="30" as="geometry" />
        </mxCell>
        <mxCell id="uuslm9PACDWed2pLeZsH-6" value="" style="group;fontSize=15;" vertex="1" connectable="0" parent="1">
          <mxGeometry x="119" y="88" width="88" height="110" as="geometry" />
        </mxCell>
        <mxCell id="uuslm9PACDWed2pLeZsH-3" value="" style="shape=image;html=1;verticalAlign=top;verticalLabelPosition=bottom;labelBackgroundColor=#ffffff;imageAspect=0;aspect=fixed;image=https://cdn1.iconfinder.com/data/icons/space-and-ships-1/512/Prancheta_18-128.png" vertex="1" parent="uuslm9PACDWed2pLeZsH-6">
          <mxGeometry width="88" height="88" as="geometry" />
        </mxCell>
        <mxCell id="uuslm9PACDWed2pLeZsH-5" value="&lt;font style=&quot;font-size: 15px;&quot;&gt;Lidar&lt;/font&gt;" style="text;html=1;align=center;verticalAlign=middle;resizable=0;points=[];autosize=1;strokeColor=none;fillColor=none;" vertex="1" parent="uuslm9PACDWed2pLeZsH-6">
          <mxGeometry x="14" y="80" width="60" height="30" as="geometry" />
        </mxCell>
        <mxCell id="uuslm9PACDWed2pLeZsH-9" value="" style="group;fontSize=15;" vertex="1" connectable="0" parent="1">
          <mxGeometry x="539" y="40" width="185" height="158" as="geometry" />
        </mxCell>
        <mxCell id="uuslm9PACDWed2pLeZsH-7" value="" style="shape=image;html=1;verticalAlign=top;verticalLabelPosition=bottom;labelBackgroundColor=#ffffff;imageAspect=0;aspect=fixed;image=https://cdn2.iconfinder.com/data/icons/circle-icons-1/64/carwheel-128.png" vertex="1" parent="uuslm9PACDWed2pLeZsH-9">
          <mxGeometry x="21" width="128" height="128" as="geometry" />
        </mxCell>
        <mxCell id="uuslm9PACDWed2pLeZsH-8" value="&lt;font style=&quot;font-size: 15px;&quot;&gt;Roue + Moteur + Encodeur&lt;/font&gt;" style="text;html=1;align=center;verticalAlign=middle;resizable=0;points=[];autosize=1;strokeColor=none;fillColor=none;" vertex="1" parent="uuslm9PACDWed2pLeZsH-9">
          <mxGeometry x="-15" y="128" width="200" height="30" as="geometry" />
        </mxCell>
        <mxCell id="uuslm9PACDWed2pLeZsH-17" value="" style="group;fontSize=15;" vertex="1" connectable="0" parent="1">
          <mxGeometry x="500" y="210" width="70" height="52" as="geometry" />
        </mxCell>
        <mxCell id="uuslm9PACDWed2pLeZsH-14" value="&lt;font style=&quot;font-size: 15px;&quot;&gt;Arduino&lt;/font&gt;" style="text;html=1;align=center;verticalAlign=middle;resizable=0;points=[];autosize=1;strokeColor=none;fillColor=none;" vertex="1" parent="uuslm9PACDWed2pLeZsH-17">
          <mxGeometry x="-10" y="22" width="80" height="30" as="geometry" />
        </mxCell>
        <mxCell id="uuslm9PACDWed2pLeZsH-15" value="" style="dashed=0;outlineConnect=0;html=1;align=center;labelPosition=center;verticalLabelPosition=bottom;verticalAlign=top;shape=mxgraph.weblogos.arduino;fillColor=#36868D;strokeColor=none" vertex="1" parent="uuslm9PACDWed2pLeZsH-17">
          <mxGeometry x="6.800000000000011" width="46.4" height="22" as="geometry" />
        </mxCell>
        <mxCell id="uuslm9PACDWed2pLeZsH-22" value="" style="group;fontSize=15;" vertex="1" connectable="0" parent="1">
          <mxGeometry x="412.5" y="138" width="100" height="60" as="geometry" />
        </mxCell>
        <mxCell id="uuslm9PACDWed2pLeZsH-18" value="" style="shape=image;html=1;verticalAlign=top;verticalLabelPosition=bottom;labelBackgroundColor=#ffffff;imageAspect=0;aspect=fixed;image=https://cdn1.iconfinder.com/data/icons/unicons-line-vol-5/24/processor-128.png" vertex="1" parent="uuslm9PACDWed2pLeZsH-22">
          <mxGeometry x="26" width="38" height="38" as="geometry" />
        </mxCell>
        <mxCell id="uuslm9PACDWed2pLeZsH-21" value="&lt;font style=&quot;font-size: 15px;&quot;&gt;Capteur IMU&lt;/font&gt;" style="text;html=1;align=center;verticalAlign=middle;resizable=0;points=[];autosize=1;strokeColor=none;fillColor=none;" vertex="1" parent="uuslm9PACDWed2pLeZsH-22">
          <mxGeometry x="-10" y="30" width="110" height="30" as="geometry" />
        </mxCell>
        <mxCell id="uuslm9PACDWed2pLeZsH-25" value="" style="rounded=0;whiteSpace=wrap;html=1;" vertex="1" parent="1">
          <mxGeometry x="110" y="360" width="610" height="450" as="geometry" />
        </mxCell>
        <mxCell id="uuslm9PACDWed2pLeZsH-13" value="" style="group;fontSize=15;" vertex="1" connectable="0" parent="1">
          <mxGeometry x="350" y="370" width="110" height="118" as="geometry" />
        </mxCell>
        <mxCell id="uuslm9PACDWed2pLeZsH-11" value="" style="shape=image;html=1;verticalAlign=top;verticalLabelPosition=bottom;labelBackgroundColor=#ffffff;imageAspect=0;aspect=fixed;image=https://cdn1.iconfinder.com/data/icons/fruit-136/64/Fruit_iconfree_Filled_Outline_raspberry-healthy-organic-food-fruit_icon-128.png" vertex="1" parent="uuslm9PACDWed2pLeZsH-13">
          <mxGeometry x="6" width="88" height="88" as="geometry" />
        </mxCell>
        <mxCell id="uuslm9PACDWed2pLeZsH-12" value="&lt;font style=&quot;font-size: 15px;&quot;&gt;Raspberry Pi 4&lt;/font&gt;" style="text;html=1;align=center;verticalAlign=middle;resizable=0;points=[];autosize=1;strokeColor=none;fillColor=none;" vertex="1" parent="uuslm9PACDWed2pLeZsH-13">
          <mxGeometry x="-10" y="88" width="120" height="30" as="geometry" />
        </mxCell>
        <mxCell id="uuslm9PACDWed2pLeZsH-28" value="Lire les données des capteur&lt;br style=&quot;font-size: 15px;&quot;&gt;&amp;nbsp;&amp;amp; les information d&#39;odomètre" style="text;html=1;align=center;verticalAlign=middle;resizable=0;points=[];autosize=1;strokeColor=none;fillColor=none;fontSize=15;" vertex="1" parent="1">
          <mxGeometry x="420" y="285" width="220" height="50" as="geometry" />
        </mxCell>
        <mxCell id="uuslm9PACDWed2pLeZsH-29" value="Envoyer des commandes &lt;br style=&quot;font-size: 15px;&quot;&gt;de navigation aux moteurs" style="text;html=1;align=center;verticalAlign=middle;resizable=0;points=[];autosize=1;strokeColor=none;fillColor=none;fontSize=15;" vertex="1" parent="1">
          <mxGeometry x="179" y="285" width="200" height="50" as="geometry" />
        </mxCell>
        <mxCell id="uuslm9PACDWed2pLeZsH-30" value="" style="shape=flexArrow;endArrow=classic;html=1;rounded=0;entryX=0.515;entryY=-0.003;entryDx=0;entryDy=0;entryPerimeter=0;exitX=0.522;exitY=1;exitDx=0;exitDy=0;exitPerimeter=0;" edge="1" parent="1" source="uuslm9PACDWed2pLeZsH-23" target="uuslm9PACDWed2pLeZsH-25">
          <mxGeometry width="50" height="50" relative="1" as="geometry">
            <mxPoint x="430" y="230" as="sourcePoint" />
            <mxPoint x="370" y="360" as="targetPoint" />
          </mxGeometry>
        </mxCell>
        <mxCell id="uuslm9PACDWed2pLeZsH-31" value="" style="shape=flexArrow;endArrow=classic;html=1;rounded=0;entryX=0.439;entryY=0.998;entryDx=0;entryDy=0;entryPerimeter=0;exitX=0.431;exitY=0.001;exitDx=0;exitDy=0;exitPerimeter=0;" edge="1" parent="1" source="uuslm9PACDWed2pLeZsH-25" target="uuslm9PACDWed2pLeZsH-23">
          <mxGeometry width="50" height="50" relative="1" as="geometry">
            <mxPoint x="368" y="350" as="sourcePoint" />
            <mxPoint x="370" y="360" as="targetPoint" />
          </mxGeometry>
        </mxCell>
        <mxCell id="uuslm9PACDWed2pLeZsH-34" value="" style="group" vertex="1" connectable="0" parent="1">
          <mxGeometry x="138" y="379" width="70" height="100" as="geometry" />
        </mxCell>
        <mxCell id="uuslm9PACDWed2pLeZsH-32" value="" style="sketch=0;aspect=fixed;pointerEvents=1;shadow=0;dashed=0;html=1;strokeColor=none;labelPosition=center;verticalLabelPosition=bottom;verticalAlign=top;align=center;fillColor=#00188D;shape=mxgraph.azure.script_file" vertex="1" parent="uuslm9PACDWed2pLeZsH-34">
          <mxGeometry x="11.5" width="47" height="50" as="geometry" />
        </mxCell>
        <mxCell id="uuslm9PACDWed2pLeZsH-33" value="&lt;b&gt;&lt;font style=&quot;font-size: 18px;&quot;&gt;SLAM&lt;/font&gt;&lt;/b&gt;" style="text;html=1;align=center;verticalAlign=middle;resizable=0;points=[];autosize=1;strokeColor=none;fillColor=none;" vertex="1" parent="uuslm9PACDWed2pLeZsH-34">
          <mxGeometry y="61" width="70" height="30" as="geometry" />
        </mxCell>
        <mxCell id="uuslm9PACDWed2pLeZsH-35" value="" style="group" vertex="1" connectable="0" parent="1">
          <mxGeometry x="110" y="510" width="135" height="115" as="geometry" />
        </mxCell>
        <mxCell id="uuslm9PACDWed2pLeZsH-36" value="" style="sketch=0;aspect=fixed;pointerEvents=1;shadow=0;dashed=0;html=1;strokeColor=none;labelPosition=center;verticalLabelPosition=bottom;verticalAlign=top;align=center;fillColor=#00188D;shape=mxgraph.azure.script_file" vertex="1" parent="uuslm9PACDWed2pLeZsH-35">
          <mxGeometry x="44" width="47" height="50" as="geometry" />
        </mxCell>
        <mxCell id="uuslm9PACDWed2pLeZsH-37" value="&lt;font size=&quot;4&quot;&gt;&lt;b&gt;Vision par &lt;br&gt;ordinateur&lt;/b&gt;&lt;/font&gt;" style="text;html=1;align=center;verticalAlign=middle;resizable=0;points=[];autosize=1;strokeColor=none;fillColor=none;" vertex="1" parent="uuslm9PACDWed2pLeZsH-35">
          <mxGeometry x="12.5" y="55" width="110" height="60" as="geometry" />
        </mxCell>
        <mxCell id="uuslm9PACDWed2pLeZsH-38" value="" style="group" vertex="1" connectable="0" parent="1">
          <mxGeometry x="550" y="500" width="110" height="115" as="geometry" />
        </mxCell>
        <mxCell id="uuslm9PACDWed2pLeZsH-39" value="" style="sketch=0;aspect=fixed;pointerEvents=1;shadow=0;dashed=0;html=1;strokeColor=none;labelPosition=center;verticalLabelPosition=bottom;verticalAlign=top;align=center;fillColor=#00188D;shape=mxgraph.azure.script_file" vertex="1" parent="uuslm9PACDWed2pLeZsH-38">
          <mxGeometry x="9.73" y="-8" width="47" height="50" as="geometry" />
        </mxCell>
        <mxCell id="uuslm9PACDWed2pLeZsH-40" value="&lt;b&gt;&lt;font style=&quot;font-size: 18px;&quot;&gt;Navigation &lt;br&gt;du robot&lt;/font&gt;&lt;/b&gt;" style="text;html=1;align=center;verticalAlign=middle;resizable=0;points=[];autosize=1;strokeColor=none;fillColor=none;" vertex="1" parent="uuslm9PACDWed2pLeZsH-38">
          <mxGeometry x="-26.77384615384615" y="42" width="120" height="60" as="geometry" />
        </mxCell>
        <mxCell id="uuslm9PACDWed2pLeZsH-43" value="" style="sketch=0;pointerEvents=1;shadow=0;dashed=0;html=1;strokeColor=none;fillColor=#505050;labelPosition=center;verticalLabelPosition=bottom;verticalAlign=top;outlineConnect=0;align=center;shape=mxgraph.office.concepts.website;fontSize=18;" vertex="1" parent="1">
          <mxGeometry x="426" y="915" width="124" height="99" as="geometry" />
        </mxCell>
        <mxCell id="uuslm9PACDWed2pLeZsH-45" value="Cloud" style="html=1;strokeColor=none;fillColor=#0079D6;labelPosition=center;verticalLabelPosition=middle;verticalAlign=top;align=center;fontSize=12;outlineConnect=0;spacingTop=-6;fontColor=#FFFFFF;sketch=0;shape=mxgraph.sitemap.cloud;" vertex="1" parent="1">
          <mxGeometry x="208" y="910" width="125" height="80" as="geometry" />
        </mxCell>
        <mxCell id="uuslm9PACDWed2pLeZsH-52" value="" style="shape=flexArrow;endArrow=classic;html=1;rounded=0;fontSize=18;exitX=1;exitY=0.75;exitDx=0;exitDy=0;exitPerimeter=0;" edge="1" parent="1" source="uuslm9PACDWed2pLeZsH-45" target="uuslm9PACDWed2pLeZsH-43">
          <mxGeometry width="50" height="50" relative="1" as="geometry">
            <mxPoint x="240" y="960" as="sourcePoint" />
            <mxPoint x="430" y="965" as="targetPoint" />
          </mxGeometry>
        </mxCell>
        <mxCell id="uuslm9PACDWed2pLeZsH-53" value="WebRTC" style="text;html=1;align=center;verticalAlign=middle;resizable=0;points=[];autosize=1;strokeColor=none;fillColor=none;fontSize=18;" vertex="1" parent="1">
          <mxGeometry x="333" y="980" width="100" height="30" as="geometry" />
        </mxCell>
        <mxCell id="uuslm9PACDWed2pLeZsH-60" value="" style="group;dashed=1;" vertex="1" connectable="0" parent="1">
          <mxGeometry x="144" y="650" width="270" height="140" as="geometry" />
        </mxCell>
        <mxCell id="uuslm9PACDWed2pLeZsH-58" value="" style="rounded=0;whiteSpace=wrap;html=1;fontSize=18;dashed=1;" vertex="1" parent="uuslm9PACDWed2pLeZsH-60">
          <mxGeometry width="270" height="140" as="geometry" />
        </mxCell>
        <mxCell id="uuslm9PACDWed2pLeZsH-46" value="" style="group" vertex="1" connectable="0" parent="uuslm9PACDWed2pLeZsH-60">
          <mxGeometry x="7.5" y="12.5" width="135" height="115" as="geometry" />
        </mxCell>
        <mxCell id="uuslm9PACDWed2pLeZsH-47" value="" style="sketch=0;aspect=fixed;pointerEvents=1;shadow=0;dashed=0;html=1;strokeColor=none;labelPosition=center;verticalLabelPosition=bottom;verticalAlign=top;align=center;fillColor=#00188D;shape=mxgraph.azure.script_file" vertex="1" parent="uuslm9PACDWed2pLeZsH-46">
          <mxGeometry x="44" width="47" height="50" as="geometry" />
        </mxCell>
        <mxCell id="uuslm9PACDWed2pLeZsH-48" value="&lt;font style=&quot;font-size: 18px;&quot;&gt;&lt;b&gt;Flux vidéo&lt;br&gt;de la caméra&lt;/b&gt;&lt;/font&gt;" style="text;html=1;align=center;verticalAlign=middle;resizable=0;points=[];autosize=1;strokeColor=none;fillColor=none;" vertex="1" parent="uuslm9PACDWed2pLeZsH-46">
          <mxGeometry x="2.5" y="55" width="130" height="60" as="geometry" />
        </mxCell>
        <mxCell id="uuslm9PACDWed2pLeZsH-49" style="edgeStyle=orthogonalEdgeStyle;rounded=0;orthogonalLoop=1;jettySize=auto;html=1;exitX=0.5;exitY=1;exitDx=0;exitDy=0;exitPerimeter=0;entryX=0.96;entryY=0.96;entryDx=0;entryDy=0;entryPerimeter=0;fontSize=18;" edge="1" parent="uuslm9PACDWed2pLeZsH-46" source="uuslm9PACDWed2pLeZsH-47" target="uuslm9PACDWed2pLeZsH-47">
          <mxGeometry relative="1" as="geometry" />
        </mxCell>
        <mxCell id="uuslm9PACDWed2pLeZsH-54" value="" style="group" vertex="1" connectable="0" parent="uuslm9PACDWed2pLeZsH-60">
          <mxGeometry x="130" y="10" width="135" height="115" as="geometry" />
        </mxCell>
        <mxCell id="uuslm9PACDWed2pLeZsH-55" value="" style="sketch=0;aspect=fixed;pointerEvents=1;shadow=0;dashed=0;html=1;strokeColor=none;labelPosition=center;verticalLabelPosition=bottom;verticalAlign=top;align=center;fillColor=#00188D;shape=mxgraph.azure.script_file" vertex="1" parent="uuslm9PACDWed2pLeZsH-54">
          <mxGeometry x="44" width="47" height="50" as="geometry" />
        </mxCell>
        <mxCell id="uuslm9PACDWed2pLeZsH-56" value="&lt;font size=&quot;4&quot;&gt;&lt;b&gt;Map&amp;nbsp;&lt;/b&gt;&lt;/font&gt;" style="text;html=1;align=center;verticalAlign=middle;resizable=0;points=[];autosize=1;strokeColor=none;fillColor=none;" vertex="1" parent="uuslm9PACDWed2pLeZsH-54">
          <mxGeometry x="37.5" y="70" width="60" height="30" as="geometry" />
        </mxCell>
        <mxCell id="uuslm9PACDWed2pLeZsH-57" style="edgeStyle=orthogonalEdgeStyle;rounded=0;orthogonalLoop=1;jettySize=auto;html=1;exitX=0.5;exitY=1;exitDx=0;exitDy=0;exitPerimeter=0;entryX=0.96;entryY=0.96;entryDx=0;entryDy=0;entryPerimeter=0;fontSize=18;" edge="1" parent="uuslm9PACDWed2pLeZsH-54" source="uuslm9PACDWed2pLeZsH-55" target="uuslm9PACDWed2pLeZsH-55">
          <mxGeometry relative="1" as="geometry" />
        </mxCell>
        <mxCell id="uuslm9PACDWed2pLeZsH-77" style="edgeStyle=orthogonalEdgeStyle;rounded=0;orthogonalLoop=1;jettySize=auto;html=1;exitX=0.5;exitY=0;exitDx=0;exitDy=0;entryX=1;entryY=0.5;entryDx=0;entryDy=0;entryPerimeter=0;strokeWidth=2;fontSize=17;" edge="1" parent="1" source="uuslm9PACDWed2pLeZsH-62" target="uuslm9PACDWed2pLeZsH-39">
          <mxGeometry relative="1" as="geometry" />
        </mxCell>
        <mxCell id="uuslm9PACDWed2pLeZsH-62" value="&lt;b&gt;&lt;font style=&quot;font-size: 17px;&quot;&gt;Server Web&lt;/font&gt;&lt;/b&gt;" style="points=[[0,0],[0.25,0],[0.5,0],[0.75,0],[1,0],[1,0.25],[1,0.5],[1,0.75],[1,1],[0.75,1],[0.5,1],[0.25,1],[0,1],[0,0.75],[0,0.5],[0,0.25]];outlineConnect=0;gradientColor=none;html=1;whiteSpace=wrap;fontSize=12;fontStyle=0;container=1;pointerEvents=0;collapsible=0;recursiveResize=0;shape=mxgraph.aws4.group;grIcon=mxgraph.aws4.group_on_premise;strokeColor=#5A6C86;fillColor=none;verticalAlign=top;align=left;spacingLeft=30;fontColor=#5A6C86;dashed=0;" vertex="1" parent="1">
          <mxGeometry x="570" y="646" width="131" height="148" as="geometry" />
        </mxCell>
        <mxCell id="uuslm9PACDWed2pLeZsH-63" value="" style="shape=image;html=1;verticalAlign=top;verticalLabelPosition=bottom;labelBackgroundColor=#ffffff;imageAspect=0;aspect=fixed;image=https://cdn2.iconfinder.com/data/icons/boxicons-logos/24/bxl-django-128.png;fontSize=17;" vertex="1" parent="uuslm9PACDWed2pLeZsH-62">
          <mxGeometry x="15.5" y="37.5" width="100" height="100" as="geometry" />
        </mxCell>
        <mxCell id="uuslm9PACDWed2pLeZsH-66" value="" style="shape=flexArrow;endArrow=classic;startArrow=classic;html=1;rounded=0;fontSize=17;entryX=0.5;entryY=1;entryDx=0;entryDy=0;" edge="1" parent="1" source="uuslm9PACDWed2pLeZsH-43" target="uuslm9PACDWed2pLeZsH-62">
          <mxGeometry width="100" height="100" relative="1" as="geometry">
            <mxPoint x="570" y="1080" as="sourcePoint" />
            <mxPoint x="630" y="890" as="targetPoint" />
            <Array as="points">
              <mxPoint x="590" y="970" />
              <mxPoint x="636" y="970" />
            </Array>
          </mxGeometry>
        </mxCell>
        <mxCell id="uuslm9PACDWed2pLeZsH-67" value="HTTP" style="text;html=1;align=center;verticalAlign=middle;resizable=0;points=[];autosize=1;strokeColor=none;fillColor=none;fontSize=17;" vertex="1" parent="1">
          <mxGeometry x="640" y="865" width="70" height="30" as="geometry" />
        </mxCell>
        <mxCell id="uuslm9PACDWed2pLeZsH-68" value="" style="sketch=0;pointerEvents=1;shadow=0;dashed=0;html=1;strokeColor=none;fillColor=#434445;aspect=fixed;labelPosition=center;verticalLabelPosition=bottom;verticalAlign=top;align=center;outlineConnect=0;shape=mxgraph.vvd.wi_fi;fontSize=17;" vertex="1" parent="1">
          <mxGeometry x="651" y="370" width="50" height="50" as="geometry" />
        </mxCell>
        <mxCell id="uuslm9PACDWed2pLeZsH-69" value="" style="sketch=0;pointerEvents=1;shadow=0;dashed=0;html=1;strokeColor=none;fillColor=#434445;aspect=fixed;labelPosition=center;verticalLabelPosition=bottom;verticalAlign=top;align=center;outlineConnect=0;shape=mxgraph.vvd.wi_fi;fontSize=17;" vertex="1" parent="1">
          <mxGeometry x="530" y="865" width="50" height="50" as="geometry" />
        </mxCell>
        <mxCell id="uuslm9PACDWed2pLeZsH-50" value="" style="shape=flexArrow;endArrow=classic;html=1;rounded=0;fontSize=18;" edge="1" parent="1">
          <mxGeometry width="50" height="50" relative="1" as="geometry">
            <mxPoint x="270.5" y="790" as="sourcePoint" />
            <mxPoint x="270" y="910" as="targetPoint" />
          </mxGeometry>
        </mxCell>
        <mxCell id="uuslm9PACDWed2pLeZsH-51" value="WebRTC" style="text;html=1;align=center;verticalAlign=middle;resizable=0;points=[];autosize=1;strokeColor=none;fillColor=none;fontSize=18;" vertex="1" parent="1">
          <mxGeometry x="277.5" y="835" width="100" height="30" as="geometry" />
        </mxCell>
        <mxCell id="uuslm9PACDWed2pLeZsH-71" style="edgeStyle=orthogonalEdgeStyle;rounded=0;orthogonalLoop=1;jettySize=auto;html=1;exitX=1;exitY=0.5;exitDx=0;exitDy=0;exitPerimeter=0;fontSize=17;strokeWidth=2;" edge="1" parent="1" source="uuslm9PACDWed2pLeZsH-32">
          <mxGeometry relative="1" as="geometry">
            <mxPoint x="560" y="500" as="targetPoint" />
            <Array as="points">
              <mxPoint x="300" y="404" />
              <mxPoint x="300" y="500" />
              <mxPoint x="560" y="500" />
            </Array>
          </mxGeometry>
        </mxCell>
        <mxCell id="uuslm9PACDWed2pLeZsH-73" style="edgeStyle=orthogonalEdgeStyle;rounded=0;orthogonalLoop=1;jettySize=auto;html=1;exitX=1;exitY=0.5;exitDx=0;exitDy=0;exitPerimeter=0;entryX=0.045;entryY=0.777;entryDx=0;entryDy=0;entryPerimeter=0;strokeWidth=2;fontSize=17;" edge="1" parent="1" source="uuslm9PACDWed2pLeZsH-36" target="uuslm9PACDWed2pLeZsH-39">
          <mxGeometry relative="1" as="geometry">
            <Array as="points">
              <mxPoint x="201" y="531" />
            </Array>
          </mxGeometry>
        </mxCell>
        <mxCell id="uuslm9PACDWed2pLeZsH-75" style="edgeStyle=orthogonalEdgeStyle;rounded=0;orthogonalLoop=1;jettySize=auto;html=1;exitX=0;exitY=0.5;exitDx=0;exitDy=0;exitPerimeter=0;entryX=0.5;entryY=1;entryDx=0;entryDy=0;entryPerimeter=0;strokeWidth=2;fontSize=17;" edge="1" parent="1" source="uuslm9PACDWed2pLeZsH-32" target="uuslm9PACDWed2pLeZsH-55">
          <mxGeometry relative="1" as="geometry">
            <Array as="points">
              <mxPoint x="120" y="404" />
              <mxPoint x="120" y="780" />
              <mxPoint x="342" y="780" />
            </Array>
          </mxGeometry>
        </mxCell>
        <mxCell id="uuslm9PACDWed2pLeZsH-76" style="edgeStyle=orthogonalEdgeStyle;rounded=0;orthogonalLoop=1;jettySize=auto;html=1;entryX=1.074;entryY=0.67;entryDx=0;entryDy=0;entryPerimeter=0;strokeWidth=2;fontSize=17;" edge="1" parent="1" source="uuslm9PACDWed2pLeZsH-36" target="uuslm9PACDWed2pLeZsH-47">
          <mxGeometry relative="1" as="geometry">
            <Array as="points">
              <mxPoint x="280" y="550" />
              <mxPoint x="280" y="696" />
            </Array>
          </mxGeometry>
        </mxCell>
        <mxCell id="uuslm9PACDWed2pLeZsH-80" value="" style="group" vertex="1" connectable="0" parent="1">
          <mxGeometry x="440" y="835" width="80" height="80" as="geometry" />
        </mxCell>
        <mxCell id="uuslm9PACDWed2pLeZsH-78" value="" style="shape=image;html=1;verticalAlign=top;verticalLabelPosition=bottom;labelBackgroundColor=#ffffff;imageAspect=0;aspect=fixed;image=https://cdn1.iconfinder.com/data/icons/unicons-line-vol-5/24/react-128.png;fontSize=17;" vertex="1" parent="uuslm9PACDWed2pLeZsH-80">
          <mxGeometry x="10" width="60" height="60" as="geometry" />
        </mxCell>
        <mxCell id="uuslm9PACDWed2pLeZsH-79" value="REACT&lt;br&gt;" style="text;html=1;align=center;verticalAlign=middle;resizable=0;points=[];autosize=1;strokeColor=none;fillColor=none;fontSize=17;" vertex="1" parent="uuslm9PACDWed2pLeZsH-80">
          <mxGeometry y="50" width="80" height="30" as="geometry" />
        </mxCell>
      </root>
    </mxGraphModel>
  </diagram>
</mxfile>
